/* XPM */
static char *a12b47ebc4684acab25fbd81424371412qOAhL51VeeyxPQV[] = {
/* columns rows colors chars-per-pixel */
"48 48 208 2 ",
"   c None",
".  c #010101",
"X  c #000904",
"o  c #05080A",
"O  c #0C171B",
"+  c #0C191D",
"@  c #071413",
"#  c #121618",
"$  c #131B1E",
"%  c #141A15",
"&  c #080B10",
"*  c #0D1B21",
"=  c #141C24",
"-  c #191D25",
";  c #1A1E29",
":  c #131720",
">  c #1E2323",
",  c #1D2924",
"<  c #1D242A",
"1  c #1D2B2B",
"2  c #162028",
"3  c #1E3230",
"4  c #21262C",
"5  c #232B2D",
"6  c #28322D",
"7  c #262B31",
"8  c #292E34",
"9  c #253232",
"0  c #2A3435",
"q  c #2E3935",
"w  c #2C353A",
"e  c #2E393B",
"r  c #253836",
"t  c #31353D",
"y  c #333C3B",
"u  c #3B3E3C",
"i  c #363B36",
"p  c #4E0009",
"a  c #61040C",
"s  c #37443B",
"d  c #3C423E",
"f  c #40423D",
"g  c #363C42",
"h  c #294546",
"j  c #334341",
"k  c #3B4544",
"l  c #374948",
"z  c #3C514E",
"x  c #424645",
"c  c #444B46",
"v  c #494C46",
"b  c #454C4B",
"n  c #494F4C",
"m  c #44524C",
"M  c #4A524A",
"N  c #51534F",
"B  c #474952",
"V  c #4A5452",
"C  c #4D5A53",
"Z  c #4B5558",
"A  c #475C5B",
"S  c #4C5B5B",
"D  c #455856",
"F  c #525454",
"G  c #545A54",
"H  c #52545B",
"J  c #535D5C",
"K  c #5E5E5C",
"L  c #4B625F",
"P  c #526157",
"I  c #55625C",
"U  c #59655D",
"Y  c #5B685F",
"T  c #64655F",
"R  c #4A5F60",
"E  c #585B64",
"W  c #4C6362",
"Q  c #4E6A64",
"!  c #536464",
"~  c #5B6665",
"^  c #546A66",
"/  c #5D6A64",
"(  c #5D6669",
")  c #556B69",
"_  c #5C6B6A",
"`  c #54716D",
"'  c #5F726C",
"]  c #5C7C7B",
"[  c #597774",
"{  c #626C65",
"}  c #626D6B",
"|  c #68696B",
" . c gray40",
".. c #627067",
"X. c #65726C",
"o. c #69756D",
"O. c #6A786F",
"+. c #71726D",
"@. c #686F71",
"#. c #657372",
"$. c #6B7574",
"%. c #6D7A74",
"&. c #6E7678",
"*. c #657C7A",
"=. c #6E7B7B",
"-. c #747472",
";. c #717D76",
":. c #727C7C",
">. c #7C7C7C",
",. c #777877",
"<. c #7B686A",
"1. c #817E7B",
"2. c #BE777B",
"3. c #58817D",
"4. c #69817E",
"5. c #728177",
"6. c #74827C",
"7. c #7B817F",
"8. c #7B887F",
"9. c #707D83",
"0. c #8E6A84",
"q. c #5F8180",
"w. c #6C8282",
"e. c #6C8B8A",
"r. c #65898B",
"t. c #748583",
"y. c #7B8484",
"u. c #7C8A84",
"i. c #748B8A",
"p. c #7B8C8A",
"a. c #758884",
"s. c #7D9186",
"d. c #7F928C",
"f. c #6C8F93",
"g. c #749494",
"h. c #799999",
"j. c #76A09E",
"k. c #7D9AA0",
"l. c #7EA3A4",
"z. c #828886",
"x. c #85928B",
"c. c #82988C",
"v. c #8B9793",
"b. c #8C9A94",
"n. c #849390",
"m. c #929D9A",
"M. c #9C9D9B",
"N. c #939794",
"B. c #96A39C",
"V. c #9AA59D",
"C. c #94A197",
"Z. c #8AAAA5",
"A. c #84ACAC",
"S. c #86A9A7",
"D. c #9BA4A2",
"F. c #9CABA3",
"G. c #97A6A4",
"H. c #96B0AF",
"J. c #81ADB0",
"K. c #9DBCBB",
"L. c #9AB7B5",
"P. c #A4A5A3",
"I. c #A9AAA6",
"U. c #ADADAC",
"Y. c #A1ACAB",
"T. c #A4B1AC",
"R. c #AABBAF",
"E. c #B1B3AE",
"W. c #ADB4B2",
"Q. c #AFBBB5",
"!. c #ABBDBB",
"~. c #A4B7B4",
"^. c #B3B3B3",
"/. c #B4BDB9",
"(. c #BCBDBC",
"). c #B6B8B7",
"_. c #FE9091",
"`. c #AEC1BD",
"'. c #B1C2BD",
"]. c #BEC1BC",
"[. c #BCBFC4",
"{. c #B7C8C3",
"}. c #ABD5D3",
"|. c #C3C3C3",
" X c #C3C5C9",
".X c #CBCBCB",
"XX c #C7C7C7",
"oX c #CBD5D2",
"OX c #D3D4D4",
"+X c #D6DCD9",
"@X c #DADBDC",
"#X c #D5D6D8",
"$X c #D6E0DD",
"%X c #E1E1DF",
"&X c #DBDFE2",
"*X c #DCE3E3",
"=X c #DDE8E4",
"-X c #D2E5E1",
";X c #E3E4E4",
":X c #E6E7E9",
">X c #EBECEB",
",X c #E7EBEC",
"<X c #F1EFF0",
"1X c #F3F4F3",
"2X c #FDFDFE",
"3X c #FDFEFC",
"4X c #F7FBFA",
"5X c #E8F6F2",
/* pixels */
"                                                                                                ",
"                                                                                                ",
"                            ;X4X          |             N.4X                                    ",
"                            K .X        N :X;X>X      >.#X:X2X                                  ",
"                           .%XOX,X      +.#X;X>X  1XN +.#X#X1X                                  ",
"                        K -.|..X|.@X.X .XX|..X X@X| F (.OX.X;X;X        2X2X@X                  ",
"          1.1.>.#X.X    F ^.^.(.).oX X .(.(.(.|.#XK F ^.(.|.|.OX  4X|.|.1X1X<X                  ",
"          :.+.7.N.U..X[.n @.%.} $.#.:.o.&.&.&.:.y.H :.&.&.:.:.:.W.|.#X;X>X>X2X2X                ",
"          Z.i.+.z.5 9 w w k e w r e y e e e e y e e w 0 0 e y w w e ^ &X@XM.M.                  ",
"          !.h.~ , t 0 u.T.T.'.{.H.e w w g e y e 0 0 w y.G.!.'.{.~.k g ! ).M.;X                  ",
"            h.h.0 y S X.:.%.6.=.-X`.@ 9 9 w w r 0 $ %.B.y.y.p.t.{.`.y 1 N.M.                    ",
"            =.e.8 + W _ } 6.F.s.n.6.s.y.6.u.6.%.y.y.6.t.6.R.b.c.T.T.y y z.>.                    ",
"              e.8 O L _ o.W.'.oXT.s.t.=.:.n.z.%.:.:.=.8.R.Q.=XR.F.b.0 y z.                      ",
"              9.8 + W _ m j j m y b.a.:.;.=.:.:.:.=.$.y d e l l T.B.0 y -.                      ",
"          H F B 8 + L ) J ! ! ( y + F.;.$.%.%.%.o.;.6 y #.} X.} F.B.9 y $X;X;X                  ",
"        | $.} S 5 O W ) I ~ X.#.$.3 y 6.%.:.:.:.X.y q t.6.:.$.%.F.m.0 e P.^.                    ",
"      y.&.=.} Z 7 2 W ) / o.... . 1 $ y a.:.$.%.y , % . . $.;.%.F.B.0 y P.U.(.^.                ",
"    :.6.=.#.} J 7 * L _ ..{ %.. o . . y u.:.:.;.y o . . . 6.o.%.V.B.0 e M.I.^. XXX#X            ",
"      !.A._ =.Z 5 O R ) ....... . 2X2Xy `.F.B.B.y 2X2Xo . :.%.o.B.v.0 w M.E.|.F D.              ",
"          l.l.l < $ W ^ } } y.. $ 2X2X= e =X{., & 4X2X. . x.5.O.F.v.9 w ).G F ;X                ",
"          g.f.e.5 = W ^ { %.6.! $ 2X2.0.1 l q % <._.2Xo k x.8.o.B.v.0 0 b b b                   ",
"          H Z Z 7 = W ^ ..I J ~ ~ $ p o } ( o.5.# a . ;.~ ..{ O.B.m.6 w OX;X;X                  ",
"        :.&.( S 7 $ W ! ~ &.$.~ P $.9.b / Y U o.M J ..{ ..=.:.o.B.D.r w M.I.).:X                ",
"    | :.=.#.( J 7 $ W ! s s s ..~ I } } $.o.o.O.{ %.> > > > > > G.b.0 t V.P.U.(.;X              ",
"    L.S.&.#._ S 7 $ W ) s T./.s s s s O.$.$.O.5.O.> > -.y./.D.y F.D.0 t M.I.E.(.{ v             ",
"      5XJ.#.( Z 7 = W ) s =X=XQ.W.m.z., q q q q 5 W.Y.W.W.=X=Xd B.m.9 r P.M.].V                 ",
"        5Xl.j.h.5 + W Q . & =X=X=X=X=X=X=X=X=X=X=X=X=X=X=X=Xo o V.B.0 t g m G                   ",
"          g B k 4 * L ) o . . . . . . . . . . . . . . . . . . . V.v.9 9  X#XOX                  ",
"          H Z S 4 * W ! . . . . . . . . . . . . . . . . . . . . m.v.9 0 N.OX:X                  ",
"      F y.#.} S 5 = W ^ . o . 4X@X*X,X#X@X+X$X+XoX=X*XOX4X. . . C.v.0 0 M.U.^.:X1X              ",
"    4.5.=.#.( Z 7 + W ! . (./.o.} 7.7.5 0 0 6 q 9 7.7.7.7.). X. V.v.q w M.I.U.(.]..X            ",
"      }.[ %.( S 7 + A ! X >.7.%...c k x b x k c k c c #.7.7.7.X C.v.0 w M.P.^.XXG               ",
"        K.L.) V 5 O W ) 7.7.7.c C C J I U P I I I C C m c 7.7.7.B.v.r 0 M.).d N                 ",
"          A.l.k.0 + W ! 7.7.7.P U U ~ ~ ~ / ~ ~ { U P U m X.7.7.b.v.9 y x n x                   ",
"              h 7 = Q ) M P ~ ~ ( { #.~ / ~ } ~ X.o.} } ~ S C C b.x.0 e E                       ",
"              D 7 < ` W ~ ( _ } { #.~ #.X._ X.X.#._ o.~ / } } ~ x.z.5 w ^.                      ",
"            V ! 7 = ` ^ ~ ~ } X.{ M P ! L ! ^ W ) W ` ' #.} } I z.:.9 w (.^.                    ",
"            ( ^ 9 < 2 h.] ] [ ^ z $ = = - - - - - = * r.3.[ ` Q S r w y OX.X4X                  ",
"          :.} *.l < - - = = - ; ; = ; - - - ; < - - - - - : = = 4 0 e # >.OX;X                  ",
"          ( #.4.*.h = - = - - = - > - < > > 4 - > ; = - ; - - - w 0 @ x ,.|..X                  ",
"          p.a.t.t.w.*.4.g.W S Z A z 0 ) Z A A A s ] z Z D L Z q w.g.w.b T +.z.                  ",
"          i.e.i.p.%.    S.L ! ! S y 0 g.S ! ^ ^ u r.Z.! ! ~ S u     d.Z.L { -.                  ",
"          b.            S.L.( } @.u u h._ ~ ( X.f e.h.^ } ( c u                                 ",
"                          K.Q _ x 0     A.' #.x     i.S.#.%.v                                   ",
"                            K.X.x       G.q.~ u       H.w.v                                     ",
"                              k           ~.x           Z.                                      ",
"                                                                                                ",
"                                                                                                "
};
