/* XPM */
static char *result[] = {
/* columns rows colors chars-per-pixel */
"24 24 6 1 ",
"  c gray1",
". c gray7",
"X c #860000",
"o c #DC0000",
"O c gray91",
"+ c black",
/* pixels */
"++++++++++++++++++++++++",
"++++++++++++++++++++++++",
"++++++++++++++++  ++++++",
"++++++++++++++    ++++++",
"+++++++++++++  oo ++++++",
"+++++++++++   ooo ++++++",
"+++++++++   ooooo ++++++",
"+++++++   ooooooo ++++++",
"++++++   oooooooo ++++++",
"++++   oooooooooo ++++++",
"++   XXoooooooooo ++++++",
"O  XXXXXXXXXooooo ++++++",
"+ .XXXXoooooXXXXX ++++++",
"++   XXoooooooooo ++++++",
"++++   oooooooooo ++++++",
"++++++   oooooooo ++++++",
"++++++++  ooooooo ++++++",
"+++++++++   ooooo ++++++",
"+++++++++++   ooo ++++++",
"+++++++++++++  oo ++++++",
"++++++++++++++    ++++++",
"++++++++++++++++  ++++++",
"++++++++++++++++++++++++",
"++++++++++++++++++++++++"
};
