/* XPM */
static char *_17ea53497e54d9e8fc85682200c77f9zelOC8SLY8VtSSz1[] = {
/* columns rows colors chars-per-pixel */
"24 24 5 1 ",
"  c #212519",
". c #53340D",
"X c #7EC000",
"o c #FFD500",
"O c #1ED8E6",
/* pixels */
"X......................X",
".OOOOOOOOOOOOOOOOOOOOOO.",
".OOOOOOOOOOOOOOOOOOOOOO.",
".OOOOOOOO     OOOOOOOOO.",
".OOOOOO   oooo  OOOOOOO.",
".OOOOO  oooooooo OOOOOO.",
".OOOO  ooooooooo  OOOOO.",
".OOO  ooooo  oooo  OOOO.",
".OOO ooooo    oooo OOOO.",
".OO  oooo      ooo  OOO.",
".OO ooooo  oo  oooo OOO.",
".OO ooooo  oo  oooo OOO.",
".OO ooooo  oo  oooo OOO.",
".OO  oooo      ooo  OOO.",
".OOO ooooo    oooo OOOO.",
".OOO  ooooo  oooo  OOOO.",
".OOOO  ooooooooo  OOOOO.",
".OOOOO  oooooooo OOOOOO.",
".OOOOOO   oooo  OOOOOOO.",
".OOOOOOOO     OOOOOOOOO.",
".OOOOOOOOOOOOOOOOOOOOOO.",
".OOOOOOOOOOOOOOOOOOOOOO.",
".OOOOOOOOOOOOOOOOOOOOOO.",
"X......................X"
};
