/* XPM */
static char *result[] = {
/* columns rows colors chars-per-pixel */
"24 24 4 1 ",
"  c gray1",
". c #860000",
"X c #DC0000",
"o c black",
/* pixels */
"oooooooooooooooooooooooo",
"ooooooooo  ooooooooooooo",
"ooooooooo   oooooooooooo",
"oooooooo  .  ooooooooooo",
"oooooooo ...  oooooooooo",
"oooooooo ....  ooooooooo",
"ooooooo  ..... ooooooooo",
"ooooooo XXX.XX  oooooooo",
"ooooooo XXX.XXX  ooooooo",
"oooooo  XXX.XXXX  oooooo",
"oooooo XXXX.XXXXX  ooooo",
"oooooo XXXX.XXXXXX  oooo",
"ooooo  XXXX.XXXXXXX oooo",
"ooooo XXXXX.XXXXXXX  ooo",
"oooo  XXXXXX.XXXXXXX  oo",
"oooo XXXXXXX.XXXXXXXX  o",
"oooo XXXXXXX.XX        o",
"ooo  XXXX       oooooooo",
"ooo X     oooooooooooooo",
"ooo   oooooooooooooooooo",
"oooooooooooooooooooooooo",
"oooooooooooooooooooooooo",
"oooooooooooooooooooooooo",
"oooooooooooooooooooooooo"
};
