/* XPM */
static char *result[] = {
/* columns rows colors chars-per-pixel */
"24 24 4 1 ",
"  c gray1",
". c #860000",
"X c #DC0000",
"o c black",
/* pixels */
"oooooooooooooooooooooooo",
"oooooooooooooooooooooooo",
"oooooooooooooooooooooooo",
"oooooooooooooooooooooooo",
"oooooooooooooooooo   ooo",
"ooooooooooooo      X ooo",
"ooooooo       XXXXX  ooo",
"o       XXXXXXXXXXX oooo",
"o  .....XXXXXXXXXX  oooo",
"oo  ....XXXXXXXXXX ooooo",
"ooo  ....XXXXXXXXX ooooo",
"oooo .XXX..XXXXXX  ooooo",
"oooo  XXXXX...XXX oooooo",
"ooooo  XXXXXXX..X oooooo",
"oooooo  XXXXXXXX  oooooo",
"ooooooo  XXXXXXX ooooooo",
"oooooooo  XXXXXX ooooooo",
"ooooooooo XXXXX  ooooooo",
"ooooooooo  XXXX oooooooo",
"oooooooooo  XX  oooooooo",
"ooooooooooo  X ooooooooo",
"oooooooooooo   ooooooooo",
"ooooooooooooo  ooooooooo",
"oooooooooooooooooooooooo"
};
