/* XPM */
static char *result[] = {
/* columns rows colors chars-per-pixel */
"24 24 4 1 ",
"  c gray1",
". c #860000",
"X c #DC0000",
"o c black",
/* pixels */
"oooooooooooooooooooooooo",
"oooooooooooooooooooooooo",
"oooooooooooooooooooooooo",
"oooooooooooooooooooooooo",
"ooooooooooooooooooo  ooo",
"ooooooooooooo        ooo",
"ooooooo       XXXXX oooo",
"o       XX.XXXXXXXX oooo",
"o  XXXXXXX.XXXXXXX  oooo",
"oo  XXXXXX.XXXXXXX ooooo",
"ooo  XXXXXX.XXXXXX ooooo",
"oooo XXXXXX.XXXXX  ooooo",
"oooo  XXXXX.XXXXX oooooo",
"ooooo  XXXX.XXXXX oooooo",
"oooooo  XXXX.XXX  oooooo",
"ooooooo  XXX.XXX ooooooo",
"oooooooo  XX.XXX ooooooo",
"ooooooooo XX...  ooooooo",
"ooooooooo  .... oooooooo",
"oooooooooo  ..  oooooooo",
"ooooooooooo  . ooooooooo",
"oooooooooooo   ooooooooo",
"ooooooooooooo  ooooooooo",
"oooooooooooooooooooooooo"
};
