/* XPM */
static char *result[] = {
/* columns rows colors chars-per-pixel */
"24 24 4 1 ",
"  c gray1",
". c #860000",
"X c #DC0000",
"o c black",
/* pixels */
"oooooooooooooooooooooooo",
"oooooooooooooooooooooooo",
"oooooo  oooooooooooooooo",
"oooooo    oooooooooooooo",
"oooooo ..  ooooooooooooo",
"oooooo ...   ooooooooooo",
"oooooo ....X   ooooooooo",
"oooooo ...XXXX   ooooooo",
"oooooo XXX.XXXXX  oooooo",
"oooooo XXX.XXXXXX   oooo",
"oooooo XXXX.XXXXXXX   oo",
"oooooo XXXX.XXXXXXXXX  o",
"oooooo XXXXX.XXXXXXX   o",
"oooooo XXXXX.XXXXXX  ooo",
"oooooo XXXXXX.XXX   oooo",
"oooooo XXXXXX.X   oooooo",
"oooooo XXXXXX   oooooooo",
"oooooo XXXXX   ooooooooo",
"oooooo XXX   ooooooooooo",
"oooooo X   ooooooooooooo",
"oooooo   ooooooooooooooo",
"oooooo  oooooooooooooooo",
"oooooooooooooooooooooooo",
"oooooooooooooooooooooooo"
};
