/* XPM */
static char *result[] = {
/* columns rows colors chars-per-pixel */
"24 24 4 1 ",
"  c gray1",
". c #860000",
"X c #DC0000",
"o c black",
/* pixels */
"oooooooooooooooooooooooo",
"ooooooooooooo  ooooooooo",
"oooooooooooo   ooooooooo",
"ooooooooooo  X ooooooooo",
"oooooooooo  XX  oooooooo",
"ooooooooo  XXXX oooooooo",
"oooooooo  XXXXX  ooooooo",
"oooooooo XXXXXXX ooooooo",
"ooooooo  XXXXXXX ooooooo",
"oooooo  X.XXXXXX  oooooo",
"ooooo  XXX.XXXXXX oooooo",
"oooo  XXXXX.XXXXX oooooo",
"ooo  XXXXXXX.XXXX  ooooo",
"ooo XXXXXXXXX.XXXX ooooo",
"oo  XXXXXXXXXX.XX. ooooo",
"o  XXXXXXXXXXXX...  oooo",
"o        XXXXX..... oooo",
"oooooooo       ....  ooo",
"oooooooooooooo     . ooo",
"oooooooooooooooooo   ooo",
"oooooooooooooooooooooooo",
"oooooooooooooooooooooooo",
"oooooooooooooooooooooooo",
"oooooooooooooooooooooooo"
};
