/* XPM */
static char *result[] = {
/* columns rows colors chars-per-pixel */
"24 24 4 1 ",
"  c gray1",
". c #860000",
"X c #DC0000",
"o c black",
/* pixels */
"oooooooooooooooooooooooo",
"oooooooooooooooooooooooo",
"oooooooooooooooooooooooo",
"oooooooooooooooooooooooo",
"ooo   oooooooooooooooooo",
"ooo X      ooooooooooooo",
"ooo  XXXXX       ooooooo",
"oooo XXXXXXXXXXX       o",
"oooo XXXXXXXXXXX.....  o",
"oooo  XXXXXXXXXX....  oo",
"ooooo XXXXXXXXX....  ooo",
"ooooo  XXXXX...XX.  oooo",
"oooooo XX...XXXXXX ooooo",
"oooooo ..XXXXXXXX  ooooo",
"oooooo  XXXXXXXX  oooooo",
"ooooooo XXXXXXX  ooooooo",
"ooooooo XXXXXX  oooooooo",
"ooooooo  XXXXX ooooooooo",
"oooooooo XXXX  ooooooooo",
"oooooooo XXX  oooooooooo",
"oooooooo  X  ooooooooooo",
"ooooooooo   oooooooooooo",
"ooooooooo  ooooooooooooo",
"oooooooooooooooooooooooo"
};
