/* XPM */
static char *result[] = {
/* columns rows colors chars-per-pixel */
"24 24 4 1 ",
"  c gray1",
". c #860000",
"X c #DC0000",
"o c black",
/* pixels */
"oooooooooooooooooooooooo",
"oooooooooooooooooooooooo",
"oooooooooooooooooooooooo",
"oooooooooooooooooooooooo",
"ooo   oooooooooooooooooo",
"ooo X      ooooooooooooo",
"ooo  XXXXX       ooooooo",
"oooo XXXXXXX.XXX       o",
"oooo XXXXXXX.XXXXXXXX  o",
"oooo  XXXXXX.XXXXXXX  oo",
"ooooo XXXXX.XXXXXXX  ooo",
"ooooo  XXXX.XXXXXX  oooo",
"oooooo XXXX.XXXXXX ooooo",
"oooooo XXXX.XXXXX  ooooo",
"oooooo  XX.XXXXX  oooooo",
"ooooooo XX.XXXX  ooooooo",
"ooooooo XX.XXX  oooooooo",
"ooooooo  ....  ooooooooo",
"oooooooo .... oooooooooo",
"oooooooo ...  oooooooooo",
"oooooooo  .  ooooooooooo",
"ooooooooo   oooooooooooo",
"ooooooooo  ooooooooooooo",
"oooooooooooooooooooooooo"
};
