/* XPM */
static char *result[] = {
/* columns rows colors chars-per-pixel */
"24 24 4 1 ",
"  c gray1",
". c #860000",
"X c #DC0000",
"o c #FEFEFE",
/* pixels */
"oooooooooooooooooooooooo",
"oooooooooooooooooooooooo",
"oooooo  oooooooooooooooo",
"oooooo    oooooooooooooo",
"oooooo XX  ooooooooooooo",
"oooooo XXX   ooooooooooo",
"oooooo XXXXX   ooooooooo",
"oooooo XXXXXXX   ooooooo",
"oooooo XXXXXXXXX  oooooo",
"oooooo XXXXXXXXXX   oooo",
"oooooo XXXXXXXXXX..   oo",
"oooooo ..............  o",
"oooooo XXXXXXXXXX...   o",
"oooooo XXXXXXXXXX..  ooo",
"oooooo XXXXXXXXX    oooo",
"oooooo XXXXXXX    oooooo",
"oooooo XXXXXXX  oooooooo",
"oooooo XXXXX   ooooooooo",
"oooooo XXX   ooooooooooo",
"oooooo X   ooooooooooooo",
"oooooo   ooooooooooooooo",
"oooooo  oooooooooooooooo",
"oooooooooooooooooooooooo",
"oooooooooooooooooooooooo"
};
