/* XPM */
static char *_5504003cb864bea8a663ed521b41ed7mKNiK9XpzcXMMqYm[] = {
/* columns rows colors chars-per-pixel */
"24 24 5 1 ",
"  c #212519",
". c #53340D",
"X c #E94D0E",
"o c #7EC000",
"O c #1ED8E6",
/* pixels */
"o......................o",
".OOOOOOOOOOOOOOOOOOOOOO.",
".OOOOOOOOOOO  OOOOOOOOO.",
".OOOOOOOOOOO  O  O  OOO.",
".OOOOOOOOOOO  O  O  OOO.",
".OOOOOOOOOOOO O  OXXOOO.",
".OOOOOO  OOO  OO O  OOO.",
".OOOOO    OO  O  OO OOO.",
".OOOO  O   O  O  O  OOO.",
".OOO  OOO  O  O  O  OOO.",
".OOO  OOO  O  O  O  OOO.",
".OOOOOOOO   O  O O  OOO.",
".OOO  OOOO        O OOO.",
".OOO  OOOO          OOO.",
".OOO  OOOO          OOO.",
".OOO   OO           OOO.",
".OOOO               OOO.",
".OOOO               OOO.",
".OOOOO              OOO.",
".OOOOO              OOO.",
".OOOOOO            OOOO.",
".OOOOOOO           OOOO.",
".OOOOOOOOOOOOOOOOOOOOOO.",
"o......................o"
};
