/* XPM */
static char *_5e0e439b0cb4c42b414a934e083523bfoTJ0cx2rpwYg8v4[] = {
/* columns rows colors chars-per-pixel */
"24 24 7 1 ",
"  c #212519",
". c #53340D",
"X c #e94d0eff",
"o c #7EC000",
"O c #B2FF00",
"+ c #13949E",
"@ c #1ED8E6",
/* pixels */
"........................",
".     @@@@@@@@@@@@     .",
". OOO @@@@@@@@@@@@ ooO .",
". o OO @@@@@@@@@@ oo O .",
". oo OO @@@@@@@@ oo OO .",
".  oo OO @@@@@@ oo OO  .",
".@@ oo OO @@@@ oo OO @@.",
".@@@ oo OO @@ oo OO @@@.",
".@@@@ oo OO  oo OO @@@@.",
".@@@@@ oo OO o OO @@@@@.",
".@@@@@@ oo OO OO @@@@@@.",
".@@@@@@@ oo OO  @@@@@@@.",
".@@@@@@@  oo OO @@@@@@@.",
".@   @@ oo oo OO @@   @.",
".@ ++  oo O oo OO  ++ @.",
".@  ++ o OO  oo O ++  @.",
".@@  +  OO @@ oo  +  @@.",
".@@@ ++   @@@@   ++ @@@.",
".@@@ ++++ @@@@ ++++ @@@.",
".@@     ++ @@ ++     @@.",
".    @@  + @@ +  @@    .",
". X @@@@   @@   @@@@ X .",
".   @@@@@@@@@@@@@@@@   .",
"........................"
};
