/* XPM */
static char *result[] = {
/* columns rows colors chars-per-pixel */
"24 24 4 1 ",
"  c gray1",
". c #860000",
"X c #DC0000",
"o c black",
/* pixels */
"oooooooooooooooooooooooo",
"ooooooooooooo  ooooooooo",
"oooooooooooo   ooooooooo",
"ooooooooooo  X ooooooooo",
"oooooooooo  XX  oooooooo",
"ooooooooo  XXXX oooooooo",
"oooooooo  XXXXX  ooooooo",
"oooooooo XXXXXXX ooooooo",
"ooooooo  XXXXXXX ooooooo",
"oooooo  XXXXXXXX  oooooo",
"ooooo  XXXXXXXX.. oooooo",
"oooo  XXXXXXXX..X oooooo",
"ooo  .XXXX....XXX  ooooo",
"ooo ......XXXXXXXX ooooo",
"oo  ....XXXXXXXXXX ooooo",
"o  .....XXXXXXXXXX  oooo",
"o        XXXXXXXXXX oooo",
"oooooooo       XXXX  ooo",
"oooooooooooooo     X ooo",
"oooooooooooooooooo   ooo",
"oooooooooooooooooooooooo",
"oooooooooooooooooooooooo",
"oooooooooooooooooooooooo",
"oooooooooooooooooooooooo"
};
