/* XPM */
static char *result[] = {
/* columns rows colors chars-per-pixel */
"24 24 4 1 ",
"  c gray1",
". c #860000",
"X c #DC0000",
"o c black",
/* pixels */
"oooooooooooooooooooooooo",
"ooooooooo  ooooooooooooo",
"ooooooooo   oooooooooooo",
"oooooooo  X  ooooooooooo",
"oooooooo XXX  oooooooooo",
"oooooooo XXXX  ooooooooo",
"ooooooo  XXXXX ooooooooo",
"ooooooo XXXXXX  oooooooo",
"ooooooo XXXXXXX  ooooooo",
"oooooo  XXXXXXXX  oooooo",
"oooooo X..XXXXXXX  ooooo",
"oooooo XXX...XXXXX  oooo",
"ooooo  XXXXXX..XXX.  ooo",
"ooooo XXXXXXXXX..X..  oo",
"oooo  XXXXXXXXXXX....  o",
"oooo XXXXXXXXXXX...... o",
"oooo XXXXXXXXXX        o",
"ooo  XXX        oooooooo",
"ooo XX    oooooooooooooo",
"ooo    ooooooooooooooooo",
"oooooooooooooooooooooooo",
"oooooooooooooooooooooooo",
"oooooooooooooooooooooooo",
"oooooooooooooooooooooooo"
};
