/* XPM */
static char *_a7562b36afa40b6f8597b8e0a5a4f28Zlv9A1X6Tum3IdQG[] = {
/* columns rows colors chars-per-pixel */
"64 64 3 1 ",
"   c #7AFF00",
".  c #000000",
"X c #070bff",
/* pixels */
"                                                                ",
"                                                                ",
"                                                                ",
"                                                                ",
"                                                                ",
"                                                                ",
"                                                                ",
"                            XXXXXXXXXXX                         ",
"                         XXXXXXXXXXXXXXXXX                      ",
"                      XXXXXXXXXXXXXXXXXXXXXXX                   ",
"                    XXXXXXXXXXXXXXXXXXXXXXXXXXX                 ",
"                   XXXXXXXXXX.........XXXXXXXXXX                ",
"                 XXXXXXXX.................XXXXXXXX              ",
"                XXXXXXX.....................XXXXXXX             ",
"               XXXXXX.........................XXXXXX            ",
"              XXXXXX...........................XXXXXX           ",
"             XXXXXX.............................XXXXXX          ",
"            XXXXXX...............................XXXXXX         ",
"            XXXXX.................................XXXXX         ",
"           XXXXX...................................XXXXX        ",
"          XXXXX.....................................XXXXX       ",
"          XXXX.......................................XXXX       ",
"         XXXXX.......XXXXXXXX..........XXXXXXX.......XXXXX      ",
"         XXXX........XXXXXXXX..........XXXXXXX........XXXX      ",
"         XXXX........XXXXXXXX..........XXXXXXX........XXXX      ",
"        XXXX.........XXXXXXXX..........XXXXXXX.........XXXX     ",
"        XXXX..........XXXX..............XXXX...........XXXX     ",
"        XXXX..........XXXX..............XXXX...........XXXX     ",
"       XXXXX...........................................XXXXX    ",
"       XXXX.............................................XXXX    ",
"       XXXX.............................................XXXX    ",
"       XXXX.............................................XXXX    ",
"       XXXX.............................................XXXX    ",
"       XXXX.............................................XXXX    ",
"       XXXX.............................................XXXX    ",
"       XXXX..........XXXXXXXXXXXXXXXXXXXXXXXXXX.........XXXX    ",
"       XXXX..........XXXX..XXXX.XXXX.XXXX..XXXX.........XXXX    ",
"       XXXX..........XXXXX..XX..XXXX.XXXX..XXXX.........XXXX    ",
"       XXXXX.........XXXXX..XX..XXXX...XX.XXXXX........XXXXX    ",
"        XXXX..........XXXX..XX...XX...XXX.XXXXX........XXXX     ",
"        XXXX..........XXXXX..X....X....X..XXXXX........XXXX     ",
"        XXXX...........XXXX....X....X....XXXXX.........XXXX     ",
"         XXXX..........XXXXX...XX...X...XXXXXX........XXXX      ",
"         XXXX..........XXXXXX..XX..XXX..XXXXX.........XXXX      ",
"         XXXXX..........XXXXX.XXXX.XXX..XXXXX........XXXXX      ",
"          XXXX..........XXXXXXXXXXXXXXXXXXXX.........XXXX       ",
"          XXXXX...........XXXXXXXXXXXXXXXXX.........XXXXX       ",
"           XXXXX.............XXXXXXXXXXXXX.........XXXXX        ",
"            XXXXX..............XXXXXXXXXX.........XXXXX         ",
"            XXXXXX...............................XXXXXX         ",
"             XXXXXX.............................XXXXXX          ",
"              XXXXXX...........................XXXXXX           ",
"               XXXXXX.........................XXXXXX            ",
"                XXXXXXX.....................XXXXXXX             ",
"                 XXXXXXXX.................XXXXXXXX              ",
"                   XXXXXXXXXX.........XXXXXXXXXX                ",
"                    XXXXXXXXXXXXXXXXXXXXXXXXXXX                 ",
"                      XXXXXXXXXXXXXXXXXXXXXXX                   ",
"                         XXXXXXXXXXXXXXXXX                      ",
"                            XXXXXXXXXXX                         ",
"                                                                ",
"                                                                ",
"                                                                ",
"                                                                "
};
